<?xml version="1.0" encoding="utf-8"?>
<!-- Generator: Adobe Illustrator 21.0.1, SVG Export Plug-In . SVG Version: 6.00 Build 0)  -->
<svg version="1.1" id="Layer_1" xmlns="http://www.w3.org/2000/svg" xmlns:xlink="http://www.w3.org/1999/xlink" x="0px" y="0px"
	 viewBox="0 0 117.9 71.2" style="enable-background:new 0 0 117.9 71.2;" xml:space="preserve">
<style type="text/css">
	.st0{fill:#808285;}
	.st1{fill:#5E5B5D;}
	.st2{fill:none;}
	.st3{font-family:'Arial-Black';}
	.st4{font-size:23.9276px;}
	.st5{font-family:'Rift-Medium';}
	.st6{font-size:14.782px;}
</style>
<path class="st0" d="M104.3,68.1H16.7c-0.1,0-0.2-0.1-0.2-0.2V3.2c0-0.1,0.1-0.2,0.2-0.2h87.7c0.1,0,0.2,0.1,0.2,0.2v64.7
	C104.6,68,104.5,68.1,104.3,68.1z"/>
<path d="M99.2,63H21.5c-0.1,0-0.2-0.1-0.2-0.2V7.7c0-0.1,0.1-0.2,0.2-0.2h77.7c0.1,0,0.2,0.1,0.2,0.2v55.1
	C99.4,62.9,99.3,63,99.2,63z"/>
<rect x="159.9" y="94.8" class="st1" width="4.5" height="13.5"/>
<rect x="29.1" y="16.8" transform="matrix(1 -8.121653e-03 8.121653e-03 1 -0.1781 0.3333)" class="st2" width="23.7" height="10.6"/>
<rect x="28.9" y="24" class="st2" width="63.5" height="17.2"/>
<text transform="matrix(0.8565 0 0 1 24.334 35.8623)" class="st0 st3 st4">AVIL</text>
<text transform="matrix(0.8565 0 0 1 80.6943 35.8623)" class="st0 st3 st4">A</text>
<rect x="65.7" y="44.2" class="st2" width="31" height="10.5"/>
<text transform="matrix(1.3686 0 0 1 51.3335 49.165)" class="st0 st5 st6">group</text>
</svg>
