<?xml version="1.0" encoding="utf-8"?>
<!-- Generator: Adobe Illustrator 21.0.1, SVG Export Plug-In . SVG Version: 6.00 Build 0)  -->
<svg version="1.1" id="Layer_1" xmlns="http://www.w3.org/2000/svg" xmlns:xlink="http://www.w3.org/1999/xlink" x="0px" y="0px"
	 viewBox="0 0 100 100" style="enable-background:new 0 0 100 100;" xml:space="preserve">
<style type="text/css">
	.st0{fill:#808285;stroke:#000000;stroke-miterlimit:10;}
	.st1{fill:#050505;stroke:#000000;stroke-miterlimit:10;}
	.st2{fill:#5E5F60;stroke:#000000;stroke-miterlimit:10;}
</style>
<path class="st0" d="M67.5,78.8H16c-3.2,0-5.8-2.6-5.8-5.8V21.6c0-3.2,2.6-5.8,5.8-5.8h51.4c3.2,0,5.8,2.6,5.8,5.8v51.3
	C73.3,76.1,70.7,78.8,67.5,78.8z"/>
<path class="st1" d="M64.8,73.9H18.2c-2,0-3.6-1.6-3.6-3.6V23.7c0-2,1.6-3.6,3.6-3.6h46.6c2,0,3.6,1.6,3.6,3.6v46.6
	C68.4,72.3,66.8,73.9,64.8,73.9z"/>
<path class="st2" d="M42.3,66.1h-1.5c-10,0-18.1-8.1-18.1-18.1l0,0c0-10,8.1-18.1,18.1-18.1h1.5c10,0,18.1,8.1,18.1,18.1l0,0
	C60.4,58,52.3,66.1,42.3,66.1z"/>
<path class="st0" d="M60.8,32.2L60.8,32.2c-2,0-3.6-1.6-3.6-3.6l0,0c0-2,1.6-3.6,3.6-3.6l0,0c2,0,3.6,1.6,3.6,3.6l0,0
	C64.4,30.5,62.8,32.2,60.8,32.2z"/>
<path class="st1" d="M41.5,59.6L41.5,59.6c-6.4,0-11.6-5.2-11.6-11.6v0c0-6.4,5.2-11.6,11.6-11.6h0c6.4,0,11.6,5.2,11.6,11.6v0
	C53.2,54.4,48,59.6,41.5,59.6z"/>
</svg>
