<?xml version="1.0" encoding="utf-8"?>
<!-- Generator: Adobe Illustrator 21.0.1, SVG Export Plug-In . SVG Version: 6.00 Build 0)  -->
<svg version="1.1" id="Layer_1" xmlns="http://www.w3.org/2000/svg" xmlns:xlink="http://www.w3.org/1999/xlink" x="0px" y="0px"
	 viewBox="0 0 100 100" style="enable-background:new 0 0 100 100;" xml:space="preserve">
<style type="text/css">
	.st0{fill:#808285;stroke:#000000;stroke-miterlimit:10;}
	.st1{fill:#050505;stroke:#000000;stroke-miterlimit:10;}
	.st2{fill:none;}
	.st3{fill:#848689;}
	.st4{font-family:'Geneva';}
	.st5{font-size:44.9302px;}
</style>
<path class="st0" d="M67.5,78.8H16c-3.2,0-5.8-2.6-5.8-5.8V21.6c0-3.2,2.6-5.8,5.8-5.8h51.4c3.2,0,5.8,2.6,5.8,5.8v51.3
	C73.3,76.1,70.7,78.8,67.5,78.8z"/>
<path class="st1" d="M64.8,73.9H18.2c-2,0-3.6-1.6-3.6-3.6V23.7c0-2,1.6-3.6,3.6-3.6h46.6c2,0,3.6,1.6,3.6,3.6v46.6
	C68.4,72.3,66.8,73.9,64.8,73.9z"/>
<rect x="24.9" y="23.2" class="st2" width="35.1" height="50.2"/>
<text transform="matrix(1.419 0 0 1 15.2251 64.292)" class="st3 st4 st5">in</text>
</svg>
